<mxfile host="app.diagrams.net" agent="Mozilla/5.0 (Windows NT 10.0; Win64; x64) AppleWebKit/537.36 (KHTML, like Gecko) Chrome/135.0.0.0 Safari/537.36" version="26.3.0">
  <diagram name="Page-1" id="JLqoLXAy_lAa28kxtK1_">
    <mxGraphModel dx="719" dy="396" grid="1" gridSize="10" guides="1" tooltips="1" connect="1" arrows="1" fold="1" page="1" pageScale="1" pageWidth="1169" pageHeight="1654" math="0" shadow="0">
      <root>
        <mxCell id="0" />
        <mxCell id="1" parent="0" />
        <mxCell id="jAzWhec101EAvwNxdhgz-5" value="" style="rounded=0;whiteSpace=wrap;html=1;fontFamily=modern;fontSource=https%3A%2F%2Fsourceforge.net%2Fprojects%2Fcm-unicode%2F;" vertex="1" parent="1">
          <mxGeometry x="200" y="240" width="170" height="100" as="geometry" />
        </mxCell>
        <mxCell id="jAzWhec101EAvwNxdhgz-6" value="USRP x410" style="text;html=1;align=center;verticalAlign=middle;whiteSpace=wrap;rounded=0;fontFamily=modern;fontSource=https%3A%2F%2Fsourceforge.net%2Fprojects%2Fcm-unicode%2F;" vertex="1" parent="1">
          <mxGeometry x="230" y="240" width="110" height="30" as="geometry" />
        </mxCell>
        <mxCell id="jAzWhec101EAvwNxdhgz-12" style="edgeStyle=orthogonalEdgeStyle;rounded=0;orthogonalLoop=1;jettySize=auto;html=1;exitX=1;exitY=0.5;exitDx=0;exitDy=0;entryX=0;entryY=0.5;entryDx=0;entryDy=0;startArrow=classicThin;startFill=1;endArrow=none;fontFamily=modern;fontSource=https%3A%2F%2Fsourceforge.net%2Fprojects%2Fcm-unicode%2F;" edge="1" parent="1" source="jAzWhec101EAvwNxdhgz-7" target="jAzWhec101EAvwNxdhgz-11">
          <mxGeometry relative="1" as="geometry" />
        </mxCell>
        <mxCell id="jAzWhec101EAvwNxdhgz-7" value="" style="ellipse;whiteSpace=wrap;html=1;aspect=fixed;fontFamily=modern;fontSource=https%3A%2F%2Fsourceforge.net%2Fprojects%2Fcm-unicode%2F;" vertex="1" parent="1">
          <mxGeometry x="310" y="290" width="40" height="40" as="geometry" />
        </mxCell>
        <mxCell id="jAzWhec101EAvwNxdhgz-8" value="Rx" style="text;html=1;align=center;verticalAlign=middle;whiteSpace=wrap;rounded=0;fontFamily=modern;fontSource=https%3A%2F%2Fsourceforge.net%2Fprojects%2Fcm-unicode%2F;" vertex="1" parent="1">
          <mxGeometry x="300" y="270" width="60" height="30" as="geometry" />
        </mxCell>
        <mxCell id="jAzWhec101EAvwNxdhgz-9" value="" style="endArrow=none;html=1;rounded=0;fontFamily=modern;fontSource=https%3A%2F%2Fsourceforge.net%2Fprojects%2Fcm-unicode%2F;" edge="1" parent="1">
          <mxGeometry width="50" height="50" relative="1" as="geometry">
            <mxPoint x="480" y="440" as="sourcePoint" />
            <mxPoint x="480" y="240" as="targetPoint" />
          </mxGeometry>
        </mxCell>
        <mxCell id="jAzWhec101EAvwNxdhgz-10" value="" style="rounded=0;whiteSpace=wrap;html=1;fontFamily=modern;fontSource=https%3A%2F%2Fsourceforge.net%2Fprojects%2Fcm-unicode%2F;" vertex="1" parent="1">
          <mxGeometry x="480" y="360" width="20" height="80" as="geometry" />
        </mxCell>
        <mxCell id="jAzWhec101EAvwNxdhgz-11" value="" style="rounded=0;whiteSpace=wrap;html=1;fontFamily=modern;fontSource=https%3A%2F%2Fsourceforge.net%2Fprojects%2Fcm-unicode%2F;" vertex="1" parent="1">
          <mxGeometry x="480" y="240" width="20" height="80" as="geometry" />
        </mxCell>
        <mxCell id="jAzWhec101EAvwNxdhgz-14" style="edgeStyle=orthogonalEdgeStyle;rounded=0;orthogonalLoop=1;jettySize=auto;html=1;exitX=0.5;exitY=1;exitDx=0;exitDy=0;entryX=0;entryY=0.5;entryDx=0;entryDy=0;fontFamily=modern;fontSource=https%3A%2F%2Fsourceforge.net%2Fprojects%2Fcm-unicode%2F;" edge="1" parent="1" source="jAzWhec101EAvwNxdhgz-13" target="jAzWhec101EAvwNxdhgz-10">
          <mxGeometry relative="1" as="geometry" />
        </mxCell>
        <mxCell id="jAzWhec101EAvwNxdhgz-13" value="" style="ellipse;whiteSpace=wrap;html=1;aspect=fixed;fontFamily=modern;fontSource=https%3A%2F%2Fsourceforge.net%2Fprojects%2Fcm-unicode%2F;" vertex="1" parent="1">
          <mxGeometry x="220" y="290" width="40" height="40" as="geometry" />
        </mxCell>
        <mxCell id="jAzWhec101EAvwNxdhgz-15" value="Tx" style="text;html=1;align=center;verticalAlign=middle;whiteSpace=wrap;rounded=0;fontFamily=modern;fontSource=https%3A%2F%2Fsourceforge.net%2Fprojects%2Fcm-unicode%2F;" vertex="1" parent="1">
          <mxGeometry x="210" y="270" width="60" height="30" as="geometry" />
        </mxCell>
        <mxCell id="jAzWhec101EAvwNxdhgz-16" value="Tx Antenna Array" style="text;html=1;align=center;verticalAlign=middle;whiteSpace=wrap;rounded=0;fontFamily=modern;fontSource=https%3A%2F%2Fsourceforge.net%2Fprojects%2Fcm-unicode%2F;" vertex="1" parent="1">
          <mxGeometry x="400" y="360" width="70" height="30" as="geometry" />
        </mxCell>
        <mxCell id="jAzWhec101EAvwNxdhgz-17" value="Rx Antenna Array" style="text;html=1;align=center;verticalAlign=middle;whiteSpace=wrap;rounded=0;fontFamily=modern;fontSource=https%3A%2F%2Fsourceforge.net%2Fprojects%2Fcm-unicode%2F;" vertex="1" parent="1">
          <mxGeometry x="400" y="240" width="70" height="30" as="geometry" />
        </mxCell>
        <mxCell id="jAzWhec101EAvwNxdhgz-18" value="" style="endArrow=none;html=1;rounded=0;fontFamily=modern;fontSource=https%3A%2F%2Fsourceforge.net%2Fprojects%2Fcm-unicode%2F;" edge="1" parent="1">
          <mxGeometry width="50" height="50" relative="1" as="geometry">
            <mxPoint x="680" y="420" as="sourcePoint" />
            <mxPoint x="680" y="260" as="targetPoint" />
          </mxGeometry>
        </mxCell>
        <mxCell id="jAzWhec101EAvwNxdhgz-19" value="Reflective Surface" style="text;html=1;align=center;verticalAlign=middle;whiteSpace=wrap;rounded=0;fontFamily=modern;fontSource=https%3A%2F%2Fsourceforge.net%2Fprojects%2Fcm-unicode%2F;" vertex="1" parent="1">
          <mxGeometry x="690" y="270" width="60" height="30" as="geometry" />
        </mxCell>
        <mxCell id="jAzWhec101EAvwNxdhgz-20" value="" style="shape=mxgraph.arrows2.wedgeArrowDashed2;html=1;bendable=0;startWidth=25.217391304347828;stepSize=15;rounded=0;fontFamily=modern;fontSource=https%3A%2F%2Fsourceforge.net%2Fprojects%2Fcm-unicode%2F;" edge="1" parent="1">
          <mxGeometry width="100" height="100" relative="1" as="geometry">
            <mxPoint x="660" y="360" as="sourcePoint" />
            <mxPoint x="510" y="410" as="targetPoint" />
          </mxGeometry>
        </mxCell>
        <mxCell id="jAzWhec101EAvwNxdhgz-21" value="" style="shape=mxgraph.arrows2.wedgeArrowDashed2;html=1;bendable=0;startWidth=25.217391304347828;stepSize=15;rounded=0;fontFamily=modern;fontSource=https%3A%2F%2Fsourceforge.net%2Fprojects%2Fcm-unicode%2F;" edge="1" parent="1">
          <mxGeometry width="100" height="100" relative="1" as="geometry">
            <mxPoint x="520" y="280" as="sourcePoint" />
            <mxPoint x="660" y="320" as="targetPoint" />
          </mxGeometry>
        </mxCell>
      </root>
    </mxGraphModel>
  </diagram>
</mxfile>
